<?xml version="1.0" encoding="UTF-8" standalone="no"?>
<!DOCTYPE svg PUBLIC "-//W3C//DTD SVG 1.1//EN" "http://www.w3.org/Graphics/SVG/1.1/DTD/svg11.dtd">
<svg width="100%" height="100%" viewBox="0 0 11831 1343" version="1.1" xmlns="http://www.w3.org/2000/svg" xmlns:xlink="http://www.w3.org/1999/xlink" xml:space="preserve" xmlns:serif="http://www.serif.com/" style="fill-rule:evenodd;clip-rule:evenodd;stroke-linejoin:round;stroke-miterlimit:2;">
    <g id="Artboard2" transform="matrix(1.157292,0,0,1,261.548078,0.000047)">
        <rect x="-226" y="-0" width="10223" height="1342.038" style="fill:none;"/>
        <g transform="matrix(1,0,0,1,88.181769,-73.352861)">
            <g transform="matrix(1,0,0,1,194.419322,73.352861)">
                <g transform="matrix(5.799744,0,0,6.712,6576.478037,190.459284)">
                    <path d="M107.4,27.1C107.3,26.4 106.7,26 106.2,26C105.7,26 95.8,25.8 95.8,25.8C95.8,25.8 87.5,17.8 86.7,16.9C85.9,16.1 84.3,16.3 83.7,16.5C83.7,16.5 82.1,17 79.5,17.8C79.1,16.4 78.4,14.7 77.5,12.9C74.6,7.3 70.2,4.3 65,4.3C64.6,4.3 64.3,4.3 63.9,4.4C63.7,4.2 63.6,4 63.4,3.9C61.1,1.5 58.2,0.3 54.7,0.4C48,0.6 41.3,5.5 35.8,14.1C32,20.2 29.1,27.8 28.2,33.7C20.5,36.1 15.1,37.8 14.9,37.8C11,39 10.9,39.1 10.4,42.8C10.2,45.6 0,124.5 0,124.5L85.6,139.3L122.7,130.1C122.6,130.1 107.5,27.8 107.4,27.1ZM75.2,19.2C73.2,19.8 71,20.5 68.6,21.3C68.6,17.9 68.1,13.1 66.6,9.1C71.7,9.9 74.2,15.7 75.2,19.2ZM64.1,22.6C59.6,24 54.7,25.5 49.8,27C51.2,21.7 53.8,16.5 57,13C58.2,11.7 59.9,10.3 61.8,9.5C63.8,13.4 64.2,18.9 64.1,22.6ZM54.9,4.9C56.5,4.9 57.8,5.2 58.9,6C57.1,6.9 55.3,8.3 53.7,10.1C49.4,14.7 46.1,21.8 44.8,28.7C40.7,30 36.7,31.2 33.1,32.3C35.5,21.4 44.6,5.2 54.9,4.9Z" style="fill:rgb(149,191,71);fill-rule:nonzero;"/>
                </g>
                <g transform="matrix(5.799744,0,0,6.712,6576.478037,190.459284)">
                    <path d="M106.2,26C105.7,26 95.8,25.8 95.8,25.8C95.8,25.8 87.5,17.8 86.7,16.9C86.4,16.6 86,16.4 85.6,16.4L85.6,139.3L122.7,130.1C122.7,130.1 107.6,27.8 107.5,27.1C107.3,26.4 106.7,26 106.2,26Z" style="fill:rgb(94,142,62);fill-rule:nonzero;"/>
                </g>
                <g transform="matrix(5.799744,0,0,6.712,6576.478037,190.459284)">
                    <path d="M65,45.1L60.7,61.2C60.7,61.2 55.9,59 50.2,59.4C41.8,59.9 41.8,65.2 41.8,66.5C42.3,73.7 61.2,75.3 62.3,92.2C63.1,105.5 55.3,114.6 43.9,115.3C30.3,116 22.8,108 22.8,108L25.7,95.7C25.7,95.7 33.3,101.4 39.3,101C43.2,100.8 44.7,97.5 44.5,95.3C43.9,85.9 28.5,86.5 27.5,71C26.7,58 35.2,44.9 54,43.7C61.3,43.2 65,45.1 65,45.1Z" style="fill:white;fill-rule:nonzero;"/>
                </g>
                <g transform="matrix(5.799744,0,0,6.712,6576.478037,190.459284)">
                    <path d="M172.9,79.4C168.6,77.1 166.4,75.1 166.4,72.4C166.4,69 169.5,66.8 174.3,66.8C179.9,66.8 184.9,69.1 184.9,69.1L188.8,57.1C188.8,57.1 185.2,54.3 174.6,54.3C159.8,54.3 149.5,62.8 149.5,74.7C149.5,81.5 154.3,86.6 160.7,90.3C165.9,93.2 167.7,95.3 167.7,98.4C167.7,101.6 165.1,104.2 160.3,104.2C153.2,104.2 146.4,100.5 146.4,100.5L142.2,112.5C142.2,112.5 148.4,116.7 158.9,116.7C174.1,116.7 185.1,109.2 185.1,95.7C185,88.4 179.5,83.2 172.9,79.4ZM233.5,54.1C226,54.1 220.1,57.7 215.6,63.1L215.4,63L221.9,29L205,29L188.5,115.6L205.4,115.6L211,86C213.2,74.8 219,67.9 224.4,67.9C228.2,67.9 229.7,70.5 229.7,74.2C229.7,76.5 229.5,79.4 229,81.7L222.6,115.6L239.5,115.6L246.1,80.6C246.8,76.9 247.3,72.5 247.3,69.5C247.4,59.9 242.4,54.1 233.5,54.1ZM285.7,54.1C265.3,54.1 251.8,72.5 251.8,93C251.8,106.1 259.9,116.7 275.1,116.7C295.1,116.7 308.6,98.8 308.6,77.8C308.7,65.7 301.6,54.1 285.7,54.1ZM277.4,103.8C271.6,103.8 269.2,98.9 269.2,92.7C269.2,83 274.2,67.2 283.4,67.2C289.4,67.2 291.4,72.4 291.4,77.4C291.4,87.8 286.3,103.8 277.4,103.8ZM352,54.1C340.6,54.1 334.1,64.2 334.1,64.2L333.9,64.2L334.9,55.1L319.9,55.1C319.2,61.2 317.8,70.6 316.5,77.6L304.7,139.6L321.6,139.6L326.3,114.5L326.7,114.5C326.7,114.5 330.2,116.7 336.6,116.7C356.5,116.7 369.5,96.3 369.5,75.7C369.5,64.3 364.4,54.1 352,54.1ZM335.8,104C331.4,104 328.8,101.5 328.8,101.5L331.6,85.7C333.6,75.1 339.1,68.1 345,68.1C350.2,68.1 351.8,72.9 351.8,77.4C351.8,88.4 345.3,104 335.8,104ZM393.7,29.8C388.3,29.8 384,34.1 384,39.6C384,44.6 387.2,48.1 392,48.1L392.2,48.1C397.5,48.1 402,44.5 402.1,38.3C402.1,33.4 398.8,29.8 393.7,29.8ZM370,115.5L386.9,115.5L398.4,55.5L381.4,55.5L370,115.5ZM441.5,55.4L429.7,55.4L430.3,52.6C431.3,46.8 434.7,41.7 440.4,41.7C443.4,41.7 445.8,42.6 445.8,42.6L449.1,29.3C449.1,29.3 446.2,27.8 439.9,27.8C433.9,27.8 427.9,29.5 423.3,33.4C417.5,38.3 414.8,45.4 413.5,52.6L413,55.4L405.1,55.4L402.6,68.2L410.5,68.2L401.5,115.6L418.4,115.6L427.4,68.2L439.1,68.2L441.5,55.4ZM482.3,55.5C482.3,55.5 471.7,82.2 467,96.8L466.8,96.8C466.5,92.1 462.6,55.5 462.6,55.5L444.8,55.5L455,110.6C455.2,111.8 455.1,112.6 454.6,113.4C452.6,117.2 449.3,120.9 445.4,123.6C442.2,125.9 438.6,127.4 435.8,128.4L440.5,142.8C443.9,142.1 451.1,139.2 457.1,133.6C464.8,126.4 472,115.2 479.3,100L500,55.5L482.3,55.5Z" style="fill-rule:nonzero;"/>
                </g>
            </g>
            <g transform="matrix(1.072175,0,0,1.072175,-251.132174,57.802267)">
                <g transform="matrix(1.436403,0,0,1.662338,659.978935,-3298.300328)">
                    <g transform="matrix(0.857639,0,0,0.857639,-7216.499375,604.34191)">
                        <rect x="8699.133" y="1949.292" width="44.227" height="219.041"/>
                    </g>
                    <g transform="matrix(0.857639,0,0,0.857639,-7216.499375,604.34191)">
                        <path d="M8785.943,2168.334L8785.943,1949.292L8828.974,1949.292L8918.623,2095.569L8918.623,1949.292L8959.712,1949.292L8959.712,2168.334L8915.336,2168.334L8827.032,2025.494L8827.032,2168.334L8785.943,2168.334Z"/>
                    </g>
                    <g transform="matrix(0.857639,0,0,0.857639,-7216.499375,604.34191)">
                        <path d="M9055.785,2168.334L9055.785,1986.347L8990.79,1986.347L8990.79,1949.292L9164.858,1949.292L9164.858,1986.347L9100.012,1986.347L9100.012,2168.334L9055.785,2168.334Z"/>
                    </g>
                    <g transform="matrix(0.857639,0,0,0.857639,-7216.499375,604.34191)">
                        <path d="M9368.211,2168.334L9320.099,2168.334L9300.974,2118.579L9213.417,2118.579L9195.338,2168.334L9148.422,2168.334L9233.738,1949.292L9280.504,1949.292L9368.211,2168.334ZM9286.78,2081.674L9256.598,2000.392L9227.014,2081.674L9286.78,2081.674Z"/>
                    </g>
                    <g transform="matrix(0.857639,0,0,0.857639,-7216.499375,604.34191)">
                        <path d="M9380.463,2097.063L9423.494,2092.88C9426.084,2107.323 9431.338,2117.931 9439.257,2124.705C9447.176,2131.478 9457.859,2134.865 9471.307,2134.865C9485.551,2134.865 9496.284,2131.852 9503.505,2125.826C9510.727,2119.799 9514.338,2112.752 9514.338,2104.683C9514.338,2099.504 9512.819,2095.096 9509.781,2091.46C9506.743,2087.824 9501.438,2084.662 9493.868,2081.972C9488.688,2080.179 9476.885,2076.992 9458.457,2072.41C9434.75,2066.533 9418.115,2059.311 9408.553,2050.745C9395.105,2038.692 9388.382,2024 9388.382,2006.668C9388.382,1995.511 9391.544,1985.077 9397.869,1975.365C9404.195,1965.653 9413.309,1958.257 9425.212,1953.177C9437.116,1948.097 9451.484,1945.557 9468.318,1945.557C9495.811,1945.557 9516.504,1951.583 9530.4,1963.636C9544.295,1975.689 9551.592,1991.776 9552.289,2011.897L9508.062,2013.839C9506.17,2002.584 9502.111,1994.49 9495.885,1989.56C9489.66,1984.629 9480.321,1982.164 9467.87,1982.164C9455.02,1982.164 9444.96,1984.803 9437.688,1990.083C9433.007,1993.469 9430.666,1998.002 9430.666,2003.679C9430.666,2008.859 9432.857,2013.292 9437.24,2016.977C9442.818,2021.659 9456.365,2026.54 9477.881,2031.62C9499.396,2036.7 9515.309,2041.954 9525.619,2047.383C9535.928,2052.812 9543.997,2060.233 9549.824,2069.646C9555.651,2079.059 9558.565,2090.688 9558.565,2104.534C9558.565,2117.085 9555.078,2128.839 9548.106,2139.796C9541.133,2150.753 9531.272,2158.896 9518.521,2164.225C9505.771,2169.554 9489.884,2172.219 9470.858,2172.219C9443.167,2172.219 9421.9,2165.819 9407.058,2153.019C9392.217,2140.219 9383.351,2121.567 9380.463,2097.063Z"/>
                    </g>
                    <g transform="matrix(0.857639,0,0,0.857639,-7216.499375,604.34191)">
                        <path d="M9645.075,2168.334L9645.075,1986.347L9580.08,1986.347L9580.08,1949.292L9754.148,1949.292L9754.148,1986.347L9689.302,1986.347L9689.302,2168.334L9645.075,2168.334Z"/>
                    </g>
                    <g transform="matrix(0.857639,0,0,0.857639,-7216.499375,604.34191)">
                        <path d="M9782.686,2168.334L9782.686,1949.292L9945.1,1949.292L9945.1,1986.347L9826.913,1986.347L9826.913,2034.907L9936.882,2034.907L9936.882,2071.812L9826.913,2071.812L9826.913,2131.429L9949.283,2131.429L9949.283,2168.334L9782.686,2168.334Z"/>
                    </g>
                    <g transform="matrix(0.857639,0,0,0.857639,-7216.499375,604.34191)">
                        <path d="M9987.981,2168.334L9987.981,1951.085L10032.208,1951.085L10032.208,2131.429L10142.177,2131.429L10142.177,2168.334L9987.981,2168.334Z"/>
                    </g>
                    <g transform="matrix(0.857639,0,0,0.857639,-7216.499375,604.34191)">
                        <path d="M10174.899,2168.334L10174.899,1951.085L10219.125,1951.085L10219.125,2131.429L10329.094,2131.429L10329.094,2168.334L10174.899,2168.334Z"/>
                    </g>
                    <g transform="matrix(0.857639,0,0,0.857639,-7216.499375,604.34191)">
                        <path d="M10558.147,2168.334L10510.035,2168.334L10490.91,2118.579L10403.353,2118.579L10385.274,2168.334L10338.358,2168.334L10423.674,1949.292L10470.44,1949.292L10558.147,2168.334ZM10476.716,2081.674L10446.534,2000.392L10416.95,2081.674L10476.716,2081.674Z"/>
                    </g>
                    <g transform="matrix(0.857639,0,0,0.857639,-7216.499375,604.34191)">
                        <path d="M10581.754,2168.334L10581.754,1949.292L10674.839,1949.292C10698.248,1949.292 10715.256,1951.26 10725.864,1955.194C10736.473,1959.129 10744.964,1966.126 10751.34,1976.187C10757.715,1986.248 10760.902,1997.752 10760.902,2010.702C10760.902,2027.137 10756.071,2040.709 10746.409,2051.417C10736.747,2062.125 10722.303,2068.874 10703.079,2071.663C10712.641,2077.241 10720.535,2083.367 10726.761,2090.041C10732.986,2096.715 10741.379,2108.568 10751.937,2125.601L10778.682,2168.334L10725.79,2168.334L10693.815,2120.671C10682.459,2103.637 10674.69,2092.905 10670.506,2088.472C10666.323,2084.039 10661.89,2081.001 10657.208,2079.358C10652.527,2077.714 10645.106,2076.892 10634.946,2076.892L10625.981,2076.892L10625.981,2168.334L10581.754,2168.334ZM10625.981,2041.929L10658.703,2041.929C10679.919,2041.929 10693.168,2041.033 10698.447,2039.24C10703.726,2037.447 10707.86,2034.359 10710.848,2029.976C10713.836,2025.593 10715.331,2020.115 10715.331,2013.541C10715.331,2006.17 10713.363,2000.218 10709.429,1995.686C10705.494,1991.153 10699.941,1988.29 10692.769,1987.094C10689.183,1986.596 10678.425,1986.347 10660.496,1986.347L10625.981,1986.347L10625.981,2041.929Z"/>
                    </g>
                    <g transform="matrix(0.857639,0,0,0.857639,-7216.499375,604.34191)">
                        <path d="M11045.238,2091.535L11074.224,2098.856C11068.148,2122.663 11057.216,2140.817 11041.428,2153.318C11025.639,2165.819 11006.34,2172.069 10983.529,2172.069C10959.922,2172.069 10940.722,2167.263 10925.93,2157.651C10911.138,2148.038 10899.882,2134.118 10892.163,2115.889C10884.443,2097.661 10880.583,2078.088 10880.583,2057.17C10880.583,2034.359 10884.941,2014.462 10893.657,1997.479C10902.373,1980.495 10914.774,1967.596 10930.861,1958.78C10946.948,1949.965 10964.653,1945.557 10983.978,1945.557C11005.892,1945.557 11024.32,1951.135 11039.261,1962.291C11054.202,1973.448 11064.612,1989.136 11070.489,2009.357L11041.95,2016.081C11036.87,2000.143 11029.499,1988.539 11019.837,1981.267C11010.175,1973.996 10998.023,1970.36 10983.38,1970.36C10966.546,1970.36 10952.476,1974.394 10941.17,1982.462C10929.865,1990.531 10921.921,2001.363 10917.339,2014.96C10912.757,2028.557 10910.466,2042.577 10910.466,2057.02C10910.466,2075.647 10913.18,2091.908 10918.609,2105.804C10924.038,2119.7 10932.48,2130.084 10943.935,2136.957C10955.39,2143.83 10967.791,2147.266 10981.139,2147.266C10997.375,2147.266 11011.121,2142.585 11022.377,2133.222C11033.633,2123.858 11041.253,2109.963 11045.238,2091.535Z"/>
                    </g>
                    <g transform="matrix(0.857639,0,0,0.857639,-7216.499375,604.34191)">
                        <path d="M11101.119,2061.652C11101.119,2025.295 11110.88,1996.831 11130.404,1976.262C11149.927,1955.692 11175.128,1945.408 11206.007,1945.408C11226.228,1945.408 11244.457,1950.239 11260.693,1959.901C11276.929,1969.563 11289.306,1983.035 11297.823,2000.317C11306.339,2017.6 11310.598,2037.198 11310.598,2059.112C11310.598,2081.325 11306.115,2101.197 11297.15,2118.728C11288.185,2136.26 11275.485,2149.533 11259.05,2158.547C11242.614,2167.562 11224.883,2172.069 11205.858,2172.069C11185.239,2172.069 11166.811,2167.089 11150.575,2157.128C11134.338,2147.167 11122.037,2133.57 11113.669,2116.338C11105.302,2099.105 11101.119,2080.877 11101.119,2061.652ZM11131.001,2062.1C11131.001,2088.497 11138.099,2109.29 11152.293,2124.481C11166.487,2139.671 11184.293,2147.266 11205.709,2147.266C11227.523,2147.266 11245.478,2139.597 11259.573,2124.257C11273.667,2108.917 11280.715,2087.152 11280.715,2058.963C11280.715,2041.132 11277.701,2025.568 11271.675,2012.271C11265.649,1998.973 11256.833,1988.663 11245.229,1981.342C11233.624,1974.021 11220.6,1970.36 11206.157,1970.36C11185.637,1970.36 11167.981,1977.407 11153.189,1991.502C11138.397,2005.597 11131.001,2029.13 11131.001,2062.1Z"/>
                    </g>
                    <g transform="matrix(0.857639,0,0,0.857639,-7216.499375,604.34191)">
                        <path d="M11347.652,2168.334L11347.652,1949.292L11377.386,1949.292L11492.435,2121.268L11492.435,1949.292L11520.226,1949.292L11520.226,2168.334L11490.492,2168.334L11375.443,1996.209L11375.443,2168.334L11347.652,2168.334Z"/>
                    </g>
                    <g transform="matrix(0.857639,0,0,0.857639,-7216.499375,604.34191)">
                        <path d="M11559.074,2097.96L11586.416,2095.569C11587.711,2106.526 11590.725,2115.516 11595.456,2122.538C11600.187,2129.561 11607.534,2135.239 11617.495,2139.572C11627.456,2143.905 11638.662,2146.071 11651.113,2146.071C11662.17,2146.071 11671.931,2144.428 11680.398,2141.14C11688.865,2137.853 11695.165,2133.346 11699.299,2127.618C11703.433,2121.891 11705.5,2115.64 11705.5,2108.867C11705.5,2101.994 11703.508,2095.992 11699.523,2090.863C11695.539,2085.733 11688.965,2081.425 11679.8,2077.938C11673.923,2075.647 11660.924,2072.086 11640.803,2067.255C11620.682,2062.424 11606.587,2057.867 11598.519,2053.584C11588.06,2048.105 11580.266,2041.307 11575.136,2033.189C11570.006,2025.07 11567.441,2015.981 11567.441,2005.92C11567.441,1994.864 11570.579,1984.529 11576.854,1974.917C11583.129,1965.305 11592.293,1958.008 11604.346,1953.028C11616.399,1948.047 11629.796,1945.557 11644.539,1945.557C11660.775,1945.557 11675.094,1948.172 11687.495,1953.401C11699.897,1958.631 11709.434,1966.326 11716.108,1976.486C11722.782,1986.646 11726.368,1998.151 11726.866,2011.001L11699.075,2013.092C11697.581,1999.247 11692.526,1988.788 11683.909,1981.715C11675.293,1974.643 11662.568,1971.107 11645.734,1971.107C11628.203,1971.107 11615.428,1974.319 11607.409,1980.744C11599.391,1987.169 11595.381,1994.914 11595.381,2003.978C11595.381,2011.847 11598.22,2018.322 11603.898,2023.402C11609.476,2028.482 11624.044,2033.687 11647.602,2039.016C11671.159,2044.345 11687.321,2049.002 11696.087,2052.986C11708.837,2058.863 11718.25,2066.309 11724.326,2075.323C11730.402,2084.338 11733.44,2094.722 11733.44,2106.476C11733.44,2118.131 11730.103,2129.113 11723.429,2139.422C11716.756,2149.732 11707.168,2157.75 11694.667,2163.478C11682.166,2169.205 11668.096,2172.069 11652.458,2172.069C11632.635,2172.069 11616.025,2169.181 11602.628,2163.403C11589.23,2157.626 11578.722,2148.935 11571.101,2137.33C11563.481,2125.726 11559.472,2112.602 11559.074,2097.96Z"/>
                    </g>
                    <g transform="matrix(0.857639,0,0,0.857639,-7216.499375,604.34191)">
                        <path d="M11773.633,2168.334L11773.633,1949.292L11932.012,1949.292L11932.012,1975.141L11802.619,1975.141L11802.619,2042.228L11923.794,2042.228L11923.794,2067.927L11802.619,2067.927L11802.619,2142.485L11937.092,2142.485L11937.092,2168.334L11773.633,2168.334Z"/>
                    </g>
                    <g transform="matrix(0.857639,0,0,0.857639,-7216.499375,604.34191)">
                        <path d="M11976.836,2168.334L11976.836,1949.292L12006.57,1949.292L12121.619,2121.268L12121.619,1949.292L12149.41,1949.292L12149.41,2168.334L12119.676,2168.334L12004.627,1996.209L12004.627,2168.334L11976.836,2168.334Z"/>
                    </g>
                    <g transform="matrix(0.857639,0,0,0.857639,-7216.499375,604.34191)">
                        <path d="M12253.85,2168.334L12253.85,1975.141L12181.683,1975.141L12181.683,1949.292L12355.303,1949.292L12355.303,1975.141L12282.837,1975.141L12282.837,2168.334L12253.85,2168.334Z"/>
                    </g>
                    <g transform="matrix(0.857639,0,0,0.857639,-7216.499375,604.34191)">
                        <path d="M12375.175,2097.96L12402.518,2095.569C12403.813,2106.526 12406.826,2115.516 12411.557,2122.538C12416.289,2129.561 12423.635,2135.239 12433.596,2139.572C12443.557,2143.905 12454.763,2146.071 12467.214,2146.071C12478.271,2146.071 12488.033,2144.428 12496.499,2141.14C12504.966,2137.853 12511.267,2133.346 12515.4,2127.618C12519.534,2121.891 12521.601,2115.64 12521.601,2108.867C12521.601,2101.994 12519.609,2095.992 12515.624,2090.863C12511.64,2085.733 12505.066,2081.425 12495.902,2077.938C12490.025,2075.647 12477.026,2072.086 12456.905,2067.255C12436.783,2062.424 12422.689,2057.867 12414.62,2053.584C12404.161,2048.105 12396.367,2041.307 12391.237,2033.189C12386.107,2025.07 12383.542,2015.981 12383.542,2005.92C12383.542,1994.864 12386.68,1984.529 12392.955,1974.917C12399.231,1965.305 12408.395,1958.008 12420.448,1953.028C12432.5,1948.047 12445.898,1945.557 12460.64,1945.557C12476.876,1945.557 12491.195,1948.172 12503.597,1953.401C12515.998,1958.631 12525.536,1966.326 12532.209,1976.486C12538.883,1986.646 12542.469,1998.151 12542.967,2011.001L12515.176,2013.092C12513.682,1999.247 12508.627,1988.788 12500.011,1981.715C12491.394,1974.643 12478.669,1971.107 12461.835,1971.107C12444.304,1971.107 12431.529,1974.319 12423.51,1980.744C12415.492,1987.169 12411.483,1994.914 12411.483,2003.978C12411.483,2011.847 12414.322,2018.322 12419.999,2023.402C12425.577,2028.482 12440.145,2033.687 12463.703,2039.016C12487.261,2044.345 12503.422,2049.002 12512.188,2052.986C12524.938,2058.863 12534.351,2066.309 12540.427,2075.323C12546.503,2084.338 12549.542,2094.722 12549.542,2106.476C12549.542,2118.131 12546.205,2129.113 12539.531,2139.422C12532.857,2149.732 12523.269,2157.75 12510.768,2163.478C12498.267,2169.205 12484.198,2172.069 12468.559,2172.069C12448.737,2172.069 12432.127,2169.181 12418.729,2163.403C12405.332,2157.626 12394.823,2148.935 12387.203,2137.33C12379.583,2125.726 12375.573,2112.602 12375.175,2097.96Z"/>
                    </g>
                </g>
                <g transform="matrix(0.393528,0,0,0.455428,163.218508,171.966599)">
                    <path d="M1842.391,1334.447C1827.905,1329.402 1813.345,1324.281 1798.714,1319.083C776.714,956.042 -371.407,497.583 115.333,424.5C304.5,396.083 1018,558.208 1018,558.208C1018,558.208 173.833,391.792 714.25,707.125C928.078,831.913 1371.744,1035.754 1823.259,1178.38C1825.618,1231.57 1832.099,1283.697 1842.391,1334.447ZM1822.429,1151.916C1820.271,1151.195 1818.113,1150.473 1815.956,1149.75C1511.956,1047.833 1193.873,905.583 987.206,810.792C615.79,640.417 500.665,488.083 797.915,539.583C1007.831,575.958 1171.623,621.875 1171.623,621.875C1171.623,621.875 789.665,539.083 1134.04,739.833C1254.345,809.959 1534.488,911.989 1830.324,1004.807C1824.999,1046.78 1822.254,1089.554 1822.254,1132.964C1822.254,1139.295 1822.312,1145.612 1822.429,1151.916ZM1834.9,972.849C1627.807,903.835 1436.773,830.544 1324.879,776.125L1324.878,776.167C1322.545,775.042 1320.295,773.917 1318.086,772.833C1414.586,565.167 1624.961,421.167 1869.045,421.167C1943.353,421.167 2014.542,434.512 2080.347,458.937C1953.662,600.127 1866.128,777.149 1834.9,972.849ZM1952.998,1629.992C1925.571,1633.784 1897.558,1635.745 1869.086,1635.745C1578.086,1635.745 1334.961,1431.037 1275.67,1157.787C1442.003,1225.203 1616.836,1290.953 1792.17,1351.62C1811.94,1358.461 1831.434,1365.115 1850.66,1371.588C1872.895,1463.231 1907.646,1550.004 1952.998,1629.992Z" style="fill:rgb(167,137,65);"/>
                </g>
            </g>
            <g transform="matrix(0.270541,0,0,1.169951,4292.860335,-26.945572)">
                <rect x="7208" y="193.105" width="63" height="932.336"/>
            </g>
        </g>
        <g transform="matrix(2.781817,0,0,0.869523,-5928.706528,164.031456)">
            <path d="M2749.89,1020.9C2744.67,1020.9 2740.077,1028.115 2737.015,1042.803L2737.015,967.56L2730.333,967.56L2730.333,1158.76L2736.736,1158.76L2736.736,1137.115C2739.729,1152.576 2744.462,1160.306 2749.89,1160.306C2760.678,1160.306 2768.542,1132.219 2768.542,1090.474C2768.542,1048.73 2760.678,1020.9 2749.89,1020.9ZM2749.334,1138.661C2742.304,1138.661 2736.945,1119.592 2736.945,1090.474C2736.945,1061.356 2742.304,1042.545 2749.334,1042.545C2756.432,1042.545 2761.791,1061.356 2761.791,1090.474C2761.791,1119.592 2756.432,1138.661 2749.334,1138.661Z" style="fill-rule:nonzero;"/>
            <path d="M2802.854,1022.188L2790.118,1131.446L2777.242,1022.188L2770.282,1022.188L2786.568,1158.502L2785.385,1168.037C2783.576,1183.755 2781.557,1189.167 2778.356,1189.167C2775.85,1189.167 2773.553,1185.559 2771.744,1179.117L2768.89,1197.67C2771.187,1205.916 2774.806,1210.297 2778.356,1210.297C2783.993,1210.297 2788.239,1201.278 2791.51,1172.417L2809.396,1022.188L2802.854,1022.188Z" style="fill-rule:nonzero;"/>
            <rect x="2835.356" y="978.382" width="6.96" height="180.378" style="fill-rule:nonzero;"/>
            <path d="M2875.653,1020.9C2869.807,1020.9 2865.074,1028.888 2862.36,1042.803L2862.36,1022.188L2855.957,1022.188L2855.957,1158.76L2862.638,1158.76L2862.638,1088.413C2862.638,1058.779 2867.232,1043.061 2874.331,1043.061C2880.664,1043.061 2884.283,1056.203 2884.283,1083.002L2884.283,1158.76L2890.965,1158.76L2890.965,1080.167C2890.965,1039.969 2884.631,1020.9 2875.653,1020.9Z" style="fill-rule:nonzero;"/>
            <path d="M2922.005,1132.992C2920.613,1137.115 2918.734,1139.434 2916.785,1139.434C2913.097,1139.434 2911.009,1131.188 2911.009,1116.5L2911.009,1042.545L2921.588,1042.545L2921.588,1022.188L2911.009,1022.188L2911.009,992.297L2904.327,992.297L2904.327,1022.188L2898.064,1022.188L2898.064,1042.545L2904.327,1042.545L2904.327,1117.531C2904.327,1145.103 2908.573,1160.306 2916.02,1160.306C2919.012,1160.306 2922.075,1157.214 2924.093,1150.772L2922.005,1132.992Z" style="fill-rule:nonzero;"/>
            <path d="M2945.599,1020.9C2939.683,1020.9 2934.185,1027.084 2930.357,1038.422L2933.141,1056.976C2935.994,1047.957 2940.449,1042.288 2944.833,1042.288C2951.445,1042.288 2954.716,1054.399 2954.716,1075.271L2954.716,1080.167L2944.137,1080.167C2933.141,1080.167 2929.313,1098.205 2929.313,1120.108C2929.313,1143.815 2934.602,1160.306 2942.954,1160.306C2948.731,1160.306 2952.837,1153.091 2955.064,1140.722L2955.064,1158.76L2961.397,1158.76L2961.397,1076.302C2961.397,1038.938 2955.69,1020.9 2945.599,1020.9ZM2944.068,1141.238C2938.987,1141.238 2935.925,1132.734 2935.925,1119.077C2935.925,1107.481 2937.804,1097.947 2944.416,1097.947L2954.716,1097.947L2954.716,1117.016C2953.046,1132.734 2949.079,1141.238 2944.068,1141.238Z" style="fill-rule:nonzero;"/>
            <path d="M2984.365,1160.306C2994.178,1160.306 3000.302,1144.588 3000.302,1119.85C3000.302,1066.768 2976.918,1093.051 2976.918,1060.841C2976.918,1050.018 2979.771,1042.03 2985.617,1042.03C2989.236,1042.03 2992.925,1044.865 2996.266,1052.853L2999.119,1033.269C2995.918,1025.538 2990.489,1020.9 2985.687,1020.9C2976.222,1020.9 2970.306,1037.392 2970.306,1061.872C2970.306,1116.243 2993.621,1089.701 2993.621,1120.365C2993.621,1131.961 2991.046,1138.919 2984.852,1138.919C2980.05,1138.919 2975.039,1132.992 2971.907,1124.746L2969.123,1144.33C2972.185,1153.349 2978.24,1160.306 2984.365,1160.306Z" style="fill-rule:nonzero;"/>
            <path d="M3027.306,1132.992C3025.914,1137.115 3024.035,1139.434 3022.087,1139.434C3018.398,1139.434 3016.31,1131.188 3016.31,1116.5L3016.31,1042.545L3026.889,1042.545L3026.889,1022.188L3016.31,1022.188L3016.31,992.297L3009.629,992.297L3009.629,1022.188L3003.365,1022.188L3003.365,1042.545L3009.629,1042.545L3009.629,1117.531C3009.629,1145.103 3013.874,1160.306 3021.321,1160.306C3024.314,1160.306 3027.376,1157.214 3029.394,1150.772L3027.306,1132.992Z" style="fill-rule:nonzero;"/>
            <path d="M3069.552,1091.247C3069.552,1049.245 3061.966,1020.9 3051.318,1020.9C3040.669,1020.9 3032.805,1050.018 3032.805,1090.474C3032.805,1131.188 3040.739,1160.306 3052.64,1160.306C3058.764,1160.306 3063.845,1152.576 3067.186,1138.146L3063.497,1122.169C3060.783,1133.25 3057.164,1138.661 3052.849,1138.661C3045.541,1138.661 3040.321,1122.685 3039.486,1098.72L3069.413,1098.72C3069.483,1096.401 3069.552,1093.309 3069.552,1091.247ZM3051.318,1041.772C3057.79,1041.772 3062.453,1058.006 3063.149,1080.94L3039.486,1080.94C3040.182,1057.749 3044.915,1041.772 3051.318,1041.772Z" style="fill-rule:nonzero;"/>
            <rect x="3078.809" y="967.56" width="6.681" height="191.2" style="fill-rule:nonzero;"/>
            <rect x="3098.226" y="967.56" width="6.681" height="191.2" style="fill-rule:nonzero;"/>
            <path d="M3131.076,1020.9C3125.161,1020.9 3119.662,1027.084 3115.835,1038.422L3118.618,1056.976C3121.472,1047.957 3125.926,1042.288 3130.311,1042.288C3136.923,1042.288 3140.194,1054.399 3140.194,1075.271L3140.194,1080.167L3129.615,1080.167C3118.618,1080.167 3114.791,1098.205 3114.791,1120.108C3114.791,1143.815 3120.08,1160.306 3128.432,1160.306C3134.208,1160.306 3138.315,1153.091 3140.542,1140.722L3140.542,1158.76L3146.875,1158.76L3146.875,1076.302C3146.875,1038.938 3141.168,1020.9 3131.076,1020.9ZM3129.545,1141.238C3124.465,1141.238 3121.402,1132.734 3121.402,1119.077C3121.402,1107.481 3123.281,1097.947 3129.893,1097.947L3140.194,1097.947L3140.194,1117.016C3138.523,1132.734 3134.556,1141.238 3129.545,1141.238Z" style="fill-rule:nonzero;"/>
            <path d="M3165.666,1045.122L3165.666,1022.188L3159.263,1022.188L3159.263,1158.76L3165.945,1158.76L3165.945,1090.732C3165.945,1060.841 3170.399,1044.607 3177.568,1044.607C3178.055,1044.607 3178.542,1044.607 3179.099,1044.865L3179.099,1020.9C3172.626,1020.9 3168.033,1029.146 3165.666,1045.122Z" style="fill-rule:nonzero;"/>
            <path d="M3221.692,1160.822C3234.568,1160.822 3240.553,1137.115 3240.553,1109.543C3240.553,1043.318 3211.044,1070.89 3211.044,1026.827C3211.044,1011.108 3214.594,998.224 3222.876,998.224C3227.191,998.224 3231.993,1002.862 3236.238,1012.912L3238.535,992.297C3234.498,981.99 3228.583,976.321 3222.876,976.321C3210.07,976.321 3204.223,1000.028 3204.223,1027.857C3204.223,1094.855 3233.733,1067.025 3233.733,1111.089C3233.733,1126.808 3230.114,1138.919 3221.692,1138.919C3215.429,1138.919 3209.235,1130.157 3205.615,1118.046L3203.04,1138.146C3206.938,1151.545 3214.246,1160.822 3221.692,1160.822Z" style="fill-rule:nonzero;"/>
            <path d="M3265.539,1160.306C3276.605,1160.306 3284.678,1131.188 3284.678,1090.474C3284.678,1049.76 3276.605,1020.9 3265.539,1020.9C3254.473,1020.9 3246.33,1049.76 3246.33,1090.474C3246.33,1131.188 3254.473,1160.306 3265.539,1160.306ZM3265.539,1138.661C3258.44,1138.661 3253.081,1119.592 3253.081,1090.474C3253.081,1061.356 3258.44,1042.545 3265.539,1042.545C3272.638,1042.545 3277.927,1061.356 3277.927,1090.474C3277.927,1119.592 3272.638,1138.661 3265.539,1138.661Z" style="fill-rule:nonzero;"/>
            <rect x="3293.935" y="967.56" width="6.681" height="191.2" style="fill-rule:nonzero;"/>
            <path d="M3341.052,1022.188L3341.052,1092.793C3341.052,1122.169 3336.598,1138.146 3329.638,1138.146C3323.305,1138.146 3319.686,1124.746 3319.686,1097.947L3319.686,1022.188L3313.005,1022.188L3313.005,1100.782C3313.005,1140.98 3319.338,1160.306 3328.873,1160.306C3334.093,1160.306 3338.686,1152.318 3341.4,1138.146L3341.4,1158.76L3347.734,1158.76L3347.734,1022.188L3341.052,1022.188Z" style="fill-rule:nonzero;"/>
            <path d="M3379.122,1132.992C3377.73,1137.115 3375.851,1139.434 3373.902,1139.434C3370.214,1139.434 3368.126,1131.188 3368.126,1116.5L3368.126,1042.545L3378.705,1042.545L3378.705,1022.188L3368.126,1022.188L3368.126,992.297L3361.444,992.297L3361.444,1022.188L3355.181,1022.188L3355.181,1042.545L3361.444,1042.545L3361.444,1117.531C3361.444,1145.103 3365.69,1160.306 3373.137,1160.306C3376.13,1160.306 3379.192,1157.214 3381.21,1150.772L3379.122,1132.992Z" style="fill-rule:nonzero;"/>
            <path d="M3392.624,995.905C3395.269,995.905 3397.148,988.69 3397.148,979.413C3397.148,970.652 3395.199,963.695 3392.624,963.695C3390.049,963.695 3388.1,970.91 3388.1,979.929C3388.1,988.947 3390.049,995.905 3392.624,995.905ZM3389.284,1158.76L3395.965,1158.76L3395.965,1022.188L3389.284,1022.188L3389.284,1158.76Z" style="fill-rule:nonzero;"/>
            <path d="M3424.5,1160.306C3435.566,1160.306 3443.639,1131.188 3443.639,1090.474C3443.639,1049.76 3435.566,1020.9 3424.5,1020.9C3413.434,1020.9 3405.291,1049.76 3405.291,1090.474C3405.291,1131.188 3413.434,1160.306 3424.5,1160.306ZM3424.5,1138.661C3417.401,1138.661 3412.042,1119.592 3412.042,1090.474C3412.042,1061.356 3417.401,1042.545 3424.5,1042.545C3431.599,1042.545 3436.888,1061.356 3436.888,1090.474C3436.888,1119.592 3431.599,1138.661 3424.5,1138.661Z" style="fill-rule:nonzero;"/>
            <path d="M3472.592,1020.9C3466.746,1020.9 3462.013,1028.888 3459.299,1042.803L3459.299,1022.188L3452.896,1022.188L3452.896,1158.76L3459.577,1158.76L3459.577,1088.413C3459.577,1058.779 3464.171,1043.061 3471.269,1043.061C3477.603,1043.061 3481.222,1056.203 3481.222,1083.002L3481.222,1158.76L3487.903,1158.76L3487.903,1080.167C3487.903,1039.969 3481.57,1020.9 3472.592,1020.9Z" style="fill-rule:nonzero;"/>
            <path d="M3510.871,1160.306C3520.684,1160.306 3526.808,1144.588 3526.808,1119.85C3526.808,1066.768 3503.424,1093.051 3503.424,1060.841C3503.424,1050.018 3506.277,1042.03 3512.123,1042.03C3515.742,1042.03 3519.431,1044.865 3522.772,1052.853L3525.625,1033.269C3522.424,1025.538 3516.995,1020.9 3512.193,1020.9C3502.728,1020.9 3496.812,1037.392 3496.812,1061.872C3496.812,1116.243 3520.127,1089.701 3520.127,1120.365C3520.127,1131.961 3517.552,1138.919 3511.358,1138.919C3506.555,1138.919 3501.544,1132.992 3498.413,1124.746L3495.629,1144.33C3498.691,1153.349 3504.746,1160.306 3510.871,1160.306Z" style="fill-rule:nonzero;"/>
            <path d="M3536.83,1125.004C3534.186,1125.004 3532.167,1132.219 3532.167,1142.526C3532.167,1150.257 3533.351,1156.183 3535.09,1158.502L3532.515,1196.897L3536.9,1196.897L3540.171,1161.079C3541.076,1151.545 3541.354,1147.68 3541.354,1142.526C3541.354,1132.477 3539.475,1125.004 3536.83,1125.004Z" style="fill-rule:nonzero;"/>
            <rect x="3570.655" y="978.382" width="6.96" height="180.378" style="fill-rule:nonzero;"/>
            <path d="M3610.952,1020.9C3605.106,1020.9 3600.373,1028.888 3597.659,1042.803L3597.659,1022.188L3591.256,1022.188L3591.256,1158.76L3597.937,1158.76L3597.937,1088.413C3597.937,1058.779 3602.531,1043.061 3609.63,1043.061C3615.963,1043.061 3619.582,1056.203 3619.582,1083.002L3619.582,1158.76L3626.263,1158.76L3626.263,1080.167C3626.263,1039.969 3619.93,1020.9 3610.952,1020.9Z" style="fill-rule:nonzero;"/>
            <path d="M3657.304,1132.992C3655.912,1137.115 3654.033,1139.434 3652.084,1139.434C3648.395,1139.434 3646.307,1131.188 3646.307,1116.5L3646.307,1042.545L3656.886,1042.545L3656.886,1022.188L3646.307,1022.188L3646.307,992.297L3639.626,992.297L3639.626,1022.188L3633.362,1022.188L3633.362,1042.545L3639.626,1042.545L3639.626,1117.531C3639.626,1145.103 3643.872,1160.306 3651.318,1160.306C3654.311,1160.306 3657.373,1157.214 3659.392,1150.772L3657.304,1132.992Z" style="fill-rule:nonzero;"/>
            <path d="M3699.55,1091.247C3699.55,1049.245 3691.963,1020.9 3681.315,1020.9C3670.667,1020.9 3662.802,1050.018 3662.802,1090.474C3662.802,1131.188 3670.736,1160.306 3682.637,1160.306C3688.762,1160.306 3693.843,1152.576 3697.183,1138.146L3693.495,1122.169C3690.78,1133.25 3687.161,1138.661 3682.846,1138.661C3675.538,1138.661 3670.319,1122.685 3669.483,1098.72L3699.41,1098.72C3699.48,1096.401 3699.55,1093.309 3699.55,1091.247ZM3681.315,1041.772C3687.788,1041.772 3692.451,1058.006 3693.147,1080.94L3669.483,1080.94C3670.179,1057.749 3674.912,1041.772 3681.315,1041.772Z" style="fill-rule:nonzero;"/>
            <path d="M3715.209,1045.122L3715.209,1022.188L3708.806,1022.188L3708.806,1158.76L3715.487,1158.76L3715.487,1090.732C3715.487,1060.841 3719.942,1044.607 3727.11,1044.607C3727.597,1044.607 3728.085,1044.607 3728.641,1044.865L3728.641,1020.9C3722.169,1020.9 3717.575,1029.146 3715.209,1045.122Z" style="fill-rule:nonzero;"/>
            <path d="M3756.55,1020.9C3750.704,1020.9 3745.971,1028.888 3743.257,1042.803L3743.257,1022.188L3736.854,1022.188L3736.854,1158.76L3743.535,1158.76L3743.535,1088.413C3743.535,1058.779 3748.129,1043.061 3755.228,1043.061C3761.561,1043.061 3765.18,1056.203 3765.18,1083.002L3765.18,1158.76L3771.862,1158.76L3771.862,1080.167C3771.862,1039.969 3765.528,1020.9 3756.55,1020.9Z" style="fill-rule:nonzero;"/>
            <path d="M3797.682,1020.9C3791.766,1020.9 3786.268,1027.084 3782.44,1038.422L3785.224,1056.976C3788.078,1047.957 3792.532,1042.288 3796.917,1042.288C3803.528,1042.288 3806.8,1054.399 3806.8,1075.271L3806.8,1080.167L3796.221,1080.167C3785.224,1080.167 3781.396,1098.205 3781.396,1120.108C3781.396,1143.815 3786.686,1160.306 3795.038,1160.306C3800.814,1160.306 3804.92,1153.091 3807.148,1140.722L3807.148,1158.76L3813.481,1158.76L3813.481,1076.302C3813.481,1038.938 3807.774,1020.9 3797.682,1020.9ZM3796.151,1141.238C3791.07,1141.238 3788.008,1132.734 3788.008,1119.077C3788.008,1107.481 3789.887,1097.947 3796.499,1097.947L3806.8,1097.947L3806.8,1117.016C3805.129,1132.734 3801.162,1141.238 3796.151,1141.238Z" style="fill-rule:nonzero;"/>
            <path d="M3844.521,1132.992C3843.129,1137.115 3841.25,1139.434 3839.302,1139.434C3835.613,1139.434 3833.525,1131.188 3833.525,1116.5L3833.525,1042.545L3844.104,1042.545L3844.104,1022.188L3833.525,1022.188L3833.525,992.297L3826.844,992.297L3826.844,1022.188L3820.58,1022.188L3820.58,1042.545L3826.844,1042.545L3826.844,1117.531C3826.844,1145.103 3831.089,1160.306 3838.536,1160.306C3841.529,1160.306 3844.591,1157.214 3846.609,1150.772L3844.521,1132.992Z" style="fill-rule:nonzero;"/>
            <path d="M3858.023,995.905C3860.668,995.905 3862.547,988.69 3862.547,979.413C3862.547,970.652 3860.598,963.695 3858.023,963.695C3855.448,963.695 3853.5,970.91 3853.5,979.929C3853.5,988.947 3855.448,995.905 3858.023,995.905ZM3854.683,1158.76L3861.364,1158.76L3861.364,1022.188L3854.683,1022.188L3854.683,1158.76Z" style="fill-rule:nonzero;"/>
            <path d="M3889.899,1160.306C3900.965,1160.306 3909.038,1131.188 3909.038,1090.474C3909.038,1049.76 3900.965,1020.9 3889.899,1020.9C3878.833,1020.9 3870.69,1049.76 3870.69,1090.474C3870.69,1131.188 3878.833,1160.306 3889.899,1160.306ZM3889.899,1138.661C3882.8,1138.661 3877.441,1119.592 3877.441,1090.474C3877.441,1061.356 3882.8,1042.545 3889.899,1042.545C3896.998,1042.545 3902.287,1061.356 3902.287,1090.474C3902.287,1119.592 3896.998,1138.661 3889.899,1138.661Z" style="fill-rule:nonzero;"/>
            <path d="M3937.991,1020.9C3932.145,1020.9 3927.412,1028.888 3924.698,1042.803L3924.698,1022.188L3918.295,1022.188L3918.295,1158.76L3924.976,1158.76L3924.976,1088.413C3924.976,1058.779 3929.57,1043.061 3936.669,1043.061C3943.002,1043.061 3946.621,1056.203 3946.621,1083.002L3946.621,1158.76L3953.303,1158.76L3953.303,1080.167C3953.303,1039.969 3946.969,1020.9 3937.991,1020.9Z" style="fill-rule:nonzero;"/>
            <path d="M3979.123,1020.9C3973.207,1020.9 3967.709,1027.084 3963.881,1038.422L3966.665,1056.976C3969.519,1047.957 3973.973,1042.288 3978.358,1042.288C3984.969,1042.288 3988.241,1054.399 3988.241,1075.271L3988.241,1080.167L3977.662,1080.167C3966.665,1080.167 3962.837,1098.205 3962.837,1120.108C3962.837,1143.815 3968.127,1160.306 3976.479,1160.306C3982.255,1160.306 3986.361,1153.091 3988.588,1140.722L3988.588,1158.76L3994.922,1158.76L3994.922,1076.302C3994.922,1038.938 3989.215,1020.9 3979.123,1020.9ZM3977.592,1141.238C3972.511,1141.238 3969.449,1132.734 3969.449,1119.077C3969.449,1107.481 3971.328,1097.947 3977.94,1097.947L3988.241,1097.947L3988.241,1117.016C3986.57,1132.734 3982.603,1141.238 3977.592,1141.238Z" style="fill-rule:nonzero;"/>
            <rect x="4007.31" y="967.56" width="6.681" height="191.2" style="fill-rule:nonzero;"/>
        </g>
    </g>
</svg>
