<?xml version="1.0" encoding="UTF-8" standalone="no"?>
<!DOCTYPE svg PUBLIC "-//W3C//DTD SVG 1.1//EN" "http://www.w3.org/Graphics/SVG/1.1/DTD/svg11.dtd">
<svg width="100%" height="100%" viewBox="0 0 11831 1343" version="1.1" xmlns="http://www.w3.org/2000/svg" xmlns:xlink="http://www.w3.org/1999/xlink" xml:space="preserve" xmlns:serif="http://www.serif.com/" style="fill-rule:evenodd;clip-rule:evenodd;stroke-linejoin:round;stroke-miterlimit:2;">
    <g id="Artboard2" transform="matrix(1.157292,0,0,1,261.548078,0.000047)">
        <rect x="-226" y="-0" width="10223" height="1342.038" style="fill:none;"/>
        <g>
            <g transform="matrix(5.799744,0,0,6.712,6576.478037,190.459284)">
                <path d="M107.4,27.1C107.3,26.4 106.7,26 106.2,26C105.7,26 95.8,25.8 95.8,25.8C95.8,25.8 87.5,17.8 86.7,16.9C85.9,16.1 84.3,16.3 83.7,16.5C83.7,16.5 82.1,17 79.5,17.8C79.1,16.4 78.4,14.7 77.5,12.9C74.6,7.3 70.2,4.3 65,4.3C64.6,4.3 64.3,4.3 63.9,4.4C63.7,4.2 63.6,4 63.4,3.9C61.1,1.5 58.2,0.3 54.7,0.4C48,0.6 41.3,5.5 35.8,14.1C32,20.2 29.1,27.8 28.2,33.7C20.5,36.1 15.1,37.8 14.9,37.8C11,39 10.9,39.1 10.4,42.8C10.2,45.6 0,124.5 0,124.5L85.6,139.3L122.7,130.1C122.6,130.1 107.5,27.8 107.4,27.1ZM75.2,19.2C73.2,19.8 71,20.5 68.6,21.3C68.6,17.9 68.1,13.1 66.6,9.1C71.7,9.9 74.2,15.7 75.2,19.2ZM64.1,22.6C59.6,24 54.7,25.5 49.8,27C51.2,21.7 53.8,16.5 57,13C58.2,11.7 59.9,10.3 61.8,9.5C63.8,13.4 64.2,18.9 64.1,22.6ZM54.9,4.9C56.5,4.9 57.8,5.2 58.9,6C57.1,6.9 55.3,8.3 53.7,10.1C49.4,14.7 46.1,21.8 44.8,28.7C40.7,30 36.7,31.2 33.1,32.3C35.5,21.4 44.6,5.2 54.9,4.9Z" style="fill:rgb(149,191,71);fill-rule:nonzero;"/>
            </g>
            <g transform="matrix(5.799744,0,0,6.712,6576.478037,190.459284)">
                <path d="M106.2,26C105.7,26 95.8,25.8 95.8,25.8C95.8,25.8 87.5,17.8 86.7,16.9C86.4,16.6 86,16.4 85.6,16.4L85.6,139.3L122.7,130.1C122.7,130.1 107.6,27.8 107.5,27.1C107.3,26.4 106.7,26 106.2,26Z" style="fill:rgb(94,142,62);fill-rule:nonzero;"/>
            </g>
            <g transform="matrix(5.799744,0,0,6.712,6576.478037,190.459284)">
                <path d="M65,45.1L60.7,61.2C60.7,61.2 55.9,59 50.2,59.4C41.8,59.9 41.8,65.2 41.8,66.5C42.3,73.7 61.2,75.3 62.3,92.2C63.1,105.5 55.3,114.6 43.9,115.3C30.3,116 22.8,108 22.8,108L25.7,95.7C25.7,95.7 33.3,101.4 39.3,101C43.2,100.8 44.7,97.5 44.5,95.3C43.9,85.9 28.5,86.5 27.5,71C26.7,58 35.2,44.9 54,43.7C61.3,43.2 65,45.1 65,45.1Z" style="fill:white;fill-rule:nonzero;"/>
            </g>
            <g transform="matrix(5.799744,0,0,6.712,6576.478037,190.459284)">
                <path d="M172.9,79.4C168.6,77.1 166.4,75.1 166.4,72.4C166.4,69 169.5,66.8 174.3,66.8C179.9,66.8 184.9,69.1 184.9,69.1L188.8,57.1C188.8,57.1 185.2,54.3 174.6,54.3C159.8,54.3 149.5,62.8 149.5,74.7C149.5,81.5 154.3,86.6 160.7,90.3C165.9,93.2 167.7,95.3 167.7,98.4C167.7,101.6 165.1,104.2 160.3,104.2C153.2,104.2 146.4,100.5 146.4,100.5L142.2,112.5C142.2,112.5 148.4,116.7 158.9,116.7C174.1,116.7 185.1,109.2 185.1,95.7C185,88.4 179.5,83.2 172.9,79.4ZM233.5,54.1C226,54.1 220.1,57.7 215.6,63.1L215.4,63L221.9,29L205,29L188.5,115.6L205.4,115.6L211,86C213.2,74.8 219,67.9 224.4,67.9C228.2,67.9 229.7,70.5 229.7,74.2C229.7,76.5 229.5,79.4 229,81.7L222.6,115.6L239.5,115.6L246.1,80.6C246.8,76.9 247.3,72.5 247.3,69.5C247.4,59.9 242.4,54.1 233.5,54.1ZM285.7,54.1C265.3,54.1 251.8,72.5 251.8,93C251.8,106.1 259.9,116.7 275.1,116.7C295.1,116.7 308.6,98.8 308.6,77.8C308.7,65.7 301.6,54.1 285.7,54.1ZM277.4,103.8C271.6,103.8 269.2,98.9 269.2,92.7C269.2,83 274.2,67.2 283.4,67.2C289.4,67.2 291.4,72.4 291.4,77.4C291.4,87.8 286.3,103.8 277.4,103.8ZM352,54.1C340.6,54.1 334.1,64.2 334.1,64.2L333.9,64.2L334.9,55.1L319.9,55.1C319.2,61.2 317.8,70.6 316.5,77.6L304.7,139.6L321.6,139.6L326.3,114.5L326.7,114.5C326.7,114.5 330.2,116.7 336.6,116.7C356.5,116.7 369.5,96.3 369.5,75.7C369.5,64.3 364.4,54.1 352,54.1ZM335.8,104C331.4,104 328.8,101.5 328.8,101.5L331.6,85.7C333.6,75.1 339.1,68.1 345,68.1C350.2,68.1 351.8,72.9 351.8,77.4C351.8,88.4 345.3,104 335.8,104ZM393.7,29.8C388.3,29.8 384,34.1 384,39.6C384,44.6 387.2,48.1 392,48.1L392.2,48.1C397.5,48.1 402,44.5 402.1,38.3C402.1,33.4 398.8,29.8 393.7,29.8ZM370,115.5L386.9,115.5L398.4,55.5L381.4,55.5L370,115.5ZM441.5,55.4L429.7,55.4L430.3,52.6C431.3,46.8 434.7,41.7 440.4,41.7C443.4,41.7 445.8,42.6 445.8,42.6L449.1,29.3C449.1,29.3 446.2,27.8 439.9,27.8C433.9,27.8 427.9,29.5 423.3,33.4C417.5,38.3 414.8,45.4 413.5,52.6L413,55.4L405.1,55.4L402.6,68.2L410.5,68.2L401.5,115.6L418.4,115.6L427.4,68.2L439.1,68.2L441.5,55.4ZM482.3,55.5C482.3,55.5 471.7,82.2 467,96.8L466.8,96.8C466.5,92.1 462.6,55.5 462.6,55.5L444.8,55.5L455,110.6C455.2,111.8 455.1,112.6 454.6,113.4C452.6,117.2 449.3,120.9 445.4,123.6C442.2,125.9 438.6,127.4 435.8,128.4L440.5,142.8C443.9,142.1 451.1,139.2 457.1,133.6C464.8,126.4 472,115.2 479.3,100L500,55.5L482.3,55.5Z" style="fill-rule:nonzero;"/>
            </g>
        </g>
        <g transform="matrix(1,0,0,1,0,30.667116)">
            <g transform="matrix(1.436403,0,0,1.662338,659.978935,-3298.300328)">
                <g transform="matrix(0.857639,0,0,0.857639,-7216.499375,604.34191)">
                    <rect x="8699.133" y="1949.292" width="44.227" height="219.041"/>
                </g>
                <g transform="matrix(0.857639,0,0,0.857639,-7216.499375,604.34191)">
                    <path d="M8785.943,2168.334L8785.943,1949.292L8828.974,1949.292L8918.623,2095.569L8918.623,1949.292L8959.712,1949.292L8959.712,2168.334L8915.336,2168.334L8827.032,2025.494L8827.032,2168.334L8785.943,2168.334Z"/>
                </g>
                <g transform="matrix(0.857639,0,0,0.857639,-7216.499375,604.34191)">
                    <path d="M9055.785,2168.334L9055.785,1986.347L8990.79,1986.347L8990.79,1949.292L9164.858,1949.292L9164.858,1986.347L9100.012,1986.347L9100.012,2168.334L9055.785,2168.334Z"/>
                </g>
                <g transform="matrix(0.857639,0,0,0.857639,-7216.499375,604.34191)">
                    <path d="M9368.211,2168.334L9320.099,2168.334L9300.974,2118.579L9213.417,2118.579L9195.338,2168.334L9148.422,2168.334L9233.738,1949.292L9280.504,1949.292L9368.211,2168.334ZM9286.78,2081.674L9256.598,2000.392L9227.014,2081.674L9286.78,2081.674Z"/>
                </g>
                <g transform="matrix(0.857639,0,0,0.857639,-7216.499375,604.34191)">
                    <path d="M9380.463,2097.063L9423.494,2092.88C9426.084,2107.323 9431.338,2117.931 9439.257,2124.705C9447.176,2131.478 9457.859,2134.865 9471.307,2134.865C9485.551,2134.865 9496.284,2131.852 9503.505,2125.826C9510.727,2119.799 9514.338,2112.752 9514.338,2104.683C9514.338,2099.504 9512.819,2095.096 9509.781,2091.46C9506.743,2087.824 9501.438,2084.662 9493.868,2081.972C9488.688,2080.179 9476.885,2076.992 9458.457,2072.41C9434.75,2066.533 9418.115,2059.311 9408.553,2050.745C9395.105,2038.692 9388.382,2024 9388.382,2006.668C9388.382,1995.511 9391.544,1985.077 9397.869,1975.365C9404.195,1965.653 9413.309,1958.257 9425.212,1953.177C9437.116,1948.097 9451.484,1945.557 9468.318,1945.557C9495.811,1945.557 9516.504,1951.583 9530.4,1963.636C9544.295,1975.689 9551.592,1991.776 9552.289,2011.897L9508.062,2013.839C9506.17,2002.584 9502.111,1994.49 9495.885,1989.56C9489.66,1984.629 9480.321,1982.164 9467.87,1982.164C9455.02,1982.164 9444.96,1984.803 9437.688,1990.083C9433.007,1993.469 9430.666,1998.002 9430.666,2003.679C9430.666,2008.859 9432.857,2013.292 9437.24,2016.977C9442.818,2021.659 9456.365,2026.54 9477.881,2031.62C9499.396,2036.7 9515.309,2041.954 9525.619,2047.383C9535.928,2052.812 9543.997,2060.233 9549.824,2069.646C9555.651,2079.059 9558.565,2090.688 9558.565,2104.534C9558.565,2117.085 9555.078,2128.839 9548.106,2139.796C9541.133,2150.753 9531.272,2158.896 9518.521,2164.225C9505.771,2169.554 9489.884,2172.219 9470.858,2172.219C9443.167,2172.219 9421.9,2165.819 9407.058,2153.019C9392.217,2140.219 9383.351,2121.567 9380.463,2097.063Z"/>
                </g>
                <g transform="matrix(0.857639,0,0,0.857639,-7216.499375,604.34191)">
                    <path d="M9645.075,2168.334L9645.075,1986.347L9580.08,1986.347L9580.08,1949.292L9754.148,1949.292L9754.148,1986.347L9689.302,1986.347L9689.302,2168.334L9645.075,2168.334Z"/>
                </g>
                <g transform="matrix(0.857639,0,0,0.857639,-7216.499375,604.34191)">
                    <path d="M9782.686,2168.334L9782.686,1949.292L9945.1,1949.292L9945.1,1986.347L9826.913,1986.347L9826.913,2034.907L9936.882,2034.907L9936.882,2071.812L9826.913,2071.812L9826.913,2131.429L9949.283,2131.429L9949.283,2168.334L9782.686,2168.334Z"/>
                </g>
                <g transform="matrix(0.857639,0,0,0.857639,-7216.499375,604.34191)">
                    <path d="M9987.981,2168.334L9987.981,1951.085L10032.208,1951.085L10032.208,2131.429L10142.177,2131.429L10142.177,2168.334L9987.981,2168.334Z"/>
                </g>
                <g transform="matrix(0.857639,0,0,0.857639,-7216.499375,604.34191)">
                    <path d="M10174.899,2168.334L10174.899,1951.085L10219.125,1951.085L10219.125,2131.429L10329.094,2131.429L10329.094,2168.334L10174.899,2168.334Z"/>
                </g>
                <g transform="matrix(0.857639,0,0,0.857639,-7216.499375,604.34191)">
                    <path d="M10558.147,2168.334L10510.035,2168.334L10490.91,2118.579L10403.353,2118.579L10385.274,2168.334L10338.358,2168.334L10423.674,1949.292L10470.44,1949.292L10558.147,2168.334ZM10476.716,2081.674L10446.534,2000.392L10416.95,2081.674L10476.716,2081.674Z"/>
                </g>
                <g transform="matrix(0.857639,0,0,0.857639,-7216.499375,604.34191)">
                    <path d="M10581.754,2168.334L10581.754,1949.292L10674.839,1949.292C10698.248,1949.292 10715.256,1951.26 10725.864,1955.194C10736.473,1959.129 10744.964,1966.126 10751.34,1976.187C10757.715,1986.248 10760.902,1997.752 10760.902,2010.702C10760.902,2027.137 10756.071,2040.709 10746.409,2051.417C10736.747,2062.125 10722.303,2068.874 10703.079,2071.663C10712.641,2077.241 10720.535,2083.367 10726.761,2090.041C10732.986,2096.715 10741.379,2108.568 10751.937,2125.601L10778.682,2168.334L10725.79,2168.334L10693.815,2120.671C10682.459,2103.637 10674.69,2092.905 10670.506,2088.472C10666.323,2084.039 10661.89,2081.001 10657.208,2079.358C10652.527,2077.714 10645.106,2076.892 10634.946,2076.892L10625.981,2076.892L10625.981,2168.334L10581.754,2168.334ZM10625.981,2041.929L10658.703,2041.929C10679.919,2041.929 10693.168,2041.033 10698.447,2039.24C10703.726,2037.447 10707.86,2034.359 10710.848,2029.976C10713.836,2025.593 10715.331,2020.115 10715.331,2013.541C10715.331,2006.17 10713.363,2000.218 10709.429,1995.686C10705.494,1991.153 10699.941,1988.29 10692.769,1987.094C10689.183,1986.596 10678.425,1986.347 10660.496,1986.347L10625.981,1986.347L10625.981,2041.929Z"/>
                </g>
                <g transform="matrix(0.857639,0,0,0.857639,-7216.499375,604.34191)">
                    <path d="M11045.238,2091.535L11074.224,2098.856C11068.148,2122.663 11057.216,2140.817 11041.428,2153.318C11025.639,2165.819 11006.34,2172.069 10983.529,2172.069C10959.922,2172.069 10940.722,2167.263 10925.93,2157.651C10911.138,2148.038 10899.882,2134.118 10892.163,2115.889C10884.443,2097.661 10880.583,2078.088 10880.583,2057.17C10880.583,2034.359 10884.941,2014.462 10893.657,1997.479C10902.373,1980.495 10914.774,1967.596 10930.861,1958.78C10946.948,1949.965 10964.653,1945.557 10983.978,1945.557C11005.892,1945.557 11024.32,1951.135 11039.261,1962.291C11054.202,1973.448 11064.612,1989.136 11070.489,2009.357L11041.95,2016.081C11036.87,2000.143 11029.499,1988.539 11019.837,1981.267C11010.175,1973.996 10998.023,1970.36 10983.38,1970.36C10966.546,1970.36 10952.476,1974.394 10941.17,1982.462C10929.865,1990.531 10921.921,2001.363 10917.339,2014.96C10912.757,2028.557 10910.466,2042.577 10910.466,2057.02C10910.466,2075.647 10913.18,2091.908 10918.609,2105.804C10924.038,2119.7 10932.48,2130.084 10943.935,2136.957C10955.39,2143.83 10967.791,2147.266 10981.139,2147.266C10997.375,2147.266 11011.121,2142.585 11022.377,2133.222C11033.633,2123.858 11041.253,2109.963 11045.238,2091.535Z"/>
                </g>
                <g transform="matrix(0.857639,0,0,0.857639,-7216.499375,604.34191)">
                    <path d="M11101.119,2061.652C11101.119,2025.295 11110.88,1996.831 11130.404,1976.262C11149.927,1955.692 11175.128,1945.408 11206.007,1945.408C11226.228,1945.408 11244.457,1950.239 11260.693,1959.901C11276.929,1969.563 11289.306,1983.035 11297.823,2000.317C11306.339,2017.6 11310.598,2037.198 11310.598,2059.112C11310.598,2081.325 11306.115,2101.197 11297.15,2118.728C11288.185,2136.26 11275.485,2149.533 11259.05,2158.547C11242.614,2167.562 11224.883,2172.069 11205.858,2172.069C11185.239,2172.069 11166.811,2167.089 11150.575,2157.128C11134.338,2147.167 11122.037,2133.57 11113.669,2116.338C11105.302,2099.105 11101.119,2080.877 11101.119,2061.652ZM11131.001,2062.1C11131.001,2088.497 11138.099,2109.29 11152.293,2124.481C11166.487,2139.671 11184.293,2147.266 11205.709,2147.266C11227.523,2147.266 11245.478,2139.597 11259.573,2124.257C11273.667,2108.917 11280.715,2087.152 11280.715,2058.963C11280.715,2041.132 11277.701,2025.568 11271.675,2012.271C11265.649,1998.973 11256.833,1988.663 11245.229,1981.342C11233.624,1974.021 11220.6,1970.36 11206.157,1970.36C11185.637,1970.36 11167.981,1977.407 11153.189,1991.502C11138.397,2005.597 11131.001,2029.13 11131.001,2062.1Z"/>
                </g>
                <g transform="matrix(0.857639,0,0,0.857639,-7216.499375,604.34191)">
                    <path d="M11347.652,2168.334L11347.652,1949.292L11377.386,1949.292L11492.435,2121.268L11492.435,1949.292L11520.226,1949.292L11520.226,2168.334L11490.492,2168.334L11375.443,1996.209L11375.443,2168.334L11347.652,2168.334Z"/>
                </g>
                <g transform="matrix(0.857639,0,0,0.857639,-7216.499375,604.34191)">
                    <path d="M11559.074,2097.96L11586.416,2095.569C11587.711,2106.526 11590.725,2115.516 11595.456,2122.538C11600.187,2129.561 11607.534,2135.239 11617.495,2139.572C11627.456,2143.905 11638.662,2146.071 11651.113,2146.071C11662.17,2146.071 11671.931,2144.428 11680.398,2141.14C11688.865,2137.853 11695.165,2133.346 11699.299,2127.618C11703.433,2121.891 11705.5,2115.64 11705.5,2108.867C11705.5,2101.994 11703.508,2095.992 11699.523,2090.863C11695.539,2085.733 11688.965,2081.425 11679.8,2077.938C11673.923,2075.647 11660.924,2072.086 11640.803,2067.255C11620.682,2062.424 11606.587,2057.867 11598.519,2053.584C11588.06,2048.105 11580.266,2041.307 11575.136,2033.189C11570.006,2025.07 11567.441,2015.981 11567.441,2005.92C11567.441,1994.864 11570.579,1984.529 11576.854,1974.917C11583.129,1965.305 11592.293,1958.008 11604.346,1953.028C11616.399,1948.047 11629.796,1945.557 11644.539,1945.557C11660.775,1945.557 11675.094,1948.172 11687.495,1953.401C11699.897,1958.631 11709.434,1966.326 11716.108,1976.486C11722.782,1986.646 11726.368,1998.151 11726.866,2011.001L11699.075,2013.092C11697.581,1999.247 11692.526,1988.788 11683.909,1981.715C11675.293,1974.643 11662.568,1971.107 11645.734,1971.107C11628.203,1971.107 11615.428,1974.319 11607.409,1980.744C11599.391,1987.169 11595.381,1994.914 11595.381,2003.978C11595.381,2011.847 11598.22,2018.322 11603.898,2023.402C11609.476,2028.482 11624.044,2033.687 11647.602,2039.016C11671.159,2044.345 11687.321,2049.002 11696.087,2052.986C11708.837,2058.863 11718.25,2066.309 11724.326,2075.323C11730.402,2084.338 11733.44,2094.722 11733.44,2106.476C11733.44,2118.131 11730.103,2129.113 11723.429,2139.422C11716.756,2149.732 11707.168,2157.75 11694.667,2163.478C11682.166,2169.205 11668.096,2172.069 11652.458,2172.069C11632.635,2172.069 11616.025,2169.181 11602.628,2163.403C11589.23,2157.626 11578.722,2148.935 11571.101,2137.33C11563.481,2125.726 11559.472,2112.602 11559.074,2097.96Z"/>
                </g>
                <g transform="matrix(0.857639,0,0,0.857639,-7216.499375,604.34191)">
                    <path d="M11773.633,2168.334L11773.633,1949.292L11932.012,1949.292L11932.012,1975.141L11802.619,1975.141L11802.619,2042.228L11923.794,2042.228L11923.794,2067.927L11802.619,2067.927L11802.619,2142.485L11937.092,2142.485L11937.092,2168.334L11773.633,2168.334Z"/>
                </g>
                <g transform="matrix(0.857639,0,0,0.857639,-7216.499375,604.34191)">
                    <path d="M11976.836,2168.334L11976.836,1949.292L12006.57,1949.292L12121.619,2121.268L12121.619,1949.292L12149.41,1949.292L12149.41,2168.334L12119.676,2168.334L12004.627,1996.209L12004.627,2168.334L11976.836,2168.334Z"/>
                </g>
                <g transform="matrix(0.857639,0,0,0.857639,-7216.499375,604.34191)">
                    <path d="M12253.85,2168.334L12253.85,1975.141L12181.683,1975.141L12181.683,1949.292L12355.303,1949.292L12355.303,1975.141L12282.837,1975.141L12282.837,2168.334L12253.85,2168.334Z"/>
                </g>
                <g transform="matrix(0.857639,0,0,0.857639,-7216.499375,604.34191)">
                    <path d="M12375.175,2097.96L12402.518,2095.569C12403.813,2106.526 12406.826,2115.516 12411.557,2122.538C12416.289,2129.561 12423.635,2135.239 12433.596,2139.572C12443.557,2143.905 12454.763,2146.071 12467.214,2146.071C12478.271,2146.071 12488.033,2144.428 12496.499,2141.14C12504.966,2137.853 12511.267,2133.346 12515.4,2127.618C12519.534,2121.891 12521.601,2115.64 12521.601,2108.867C12521.601,2101.994 12519.609,2095.992 12515.624,2090.863C12511.64,2085.733 12505.066,2081.425 12495.902,2077.938C12490.025,2075.647 12477.026,2072.086 12456.905,2067.255C12436.783,2062.424 12422.689,2057.867 12414.62,2053.584C12404.161,2048.105 12396.367,2041.307 12391.237,2033.189C12386.107,2025.07 12383.542,2015.981 12383.542,2005.92C12383.542,1994.864 12386.68,1984.529 12392.955,1974.917C12399.231,1965.305 12408.395,1958.008 12420.448,1953.028C12432.5,1948.047 12445.898,1945.557 12460.64,1945.557C12476.876,1945.557 12491.195,1948.172 12503.597,1953.401C12515.998,1958.631 12525.536,1966.326 12532.209,1976.486C12538.883,1986.646 12542.469,1998.151 12542.967,2011.001L12515.176,2013.092C12513.682,1999.247 12508.627,1988.788 12500.011,1981.715C12491.394,1974.643 12478.669,1971.107 12461.835,1971.107C12444.304,1971.107 12431.529,1974.319 12423.51,1980.744C12415.492,1987.169 12411.483,1994.914 12411.483,2003.978C12411.483,2011.847 12414.322,2018.322 12419.999,2023.402C12425.577,2028.482 12440.145,2033.687 12463.703,2039.016C12487.261,2044.345 12503.422,2049.002 12512.188,2052.986C12524.938,2058.863 12534.351,2066.309 12540.427,2075.323C12546.503,2084.338 12549.542,2094.722 12549.542,2106.476C12549.542,2118.131 12546.205,2129.113 12539.531,2139.422C12532.857,2149.732 12523.269,2157.75 12510.768,2163.478C12498.267,2169.205 12484.198,2172.069 12468.559,2172.069C12448.737,2172.069 12432.127,2169.181 12418.729,2163.403C12405.332,2157.626 12394.823,2148.935 12387.203,2137.33C12379.583,2125.726 12375.573,2112.602 12375.175,2097.96Z"/>
                </g>
            </g>
            <g transform="matrix(0.393528,0,0,0.455428,163.218508,171.966599)">
                <path d="M1842.391,1334.447C1827.905,1329.402 1813.345,1324.281 1798.714,1319.083C776.714,956.042 -371.407,497.583 115.333,424.5C304.5,396.083 1018,558.208 1018,558.208C1018,558.208 173.833,391.792 714.25,707.125C928.078,831.913 1371.744,1035.754 1823.259,1178.38C1825.618,1231.57 1832.099,1283.697 1842.391,1334.447ZM1822.429,1151.916C1820.271,1151.195 1818.113,1150.473 1815.956,1149.75C1511.956,1047.833 1193.873,905.583 987.206,810.792C615.79,640.417 500.665,488.083 797.915,539.583C1007.831,575.958 1171.623,621.875 1171.623,621.875C1171.623,621.875 789.665,539.083 1134.04,739.833C1254.345,809.959 1534.488,911.989 1830.324,1004.807C1824.999,1046.78 1822.254,1089.554 1822.254,1132.964C1822.254,1139.295 1822.312,1145.612 1822.429,1151.916ZM1834.9,972.849C1627.807,903.835 1436.773,830.544 1324.879,776.125L1324.878,776.167C1322.545,775.042 1320.295,773.917 1318.086,772.833C1414.586,565.167 1624.961,421.167 1869.045,421.167C1943.353,421.167 2014.542,434.512 2080.347,458.937C1953.662,600.127 1866.128,777.149 1834.9,972.849ZM1952.998,1629.992C1925.571,1633.784 1897.558,1635.745 1869.086,1635.745C1578.086,1635.745 1334.961,1431.037 1275.67,1157.787C1442.003,1225.203 1616.836,1290.953 1792.17,1351.62C1811.94,1358.461 1831.434,1365.115 1850.66,1371.588C1872.895,1463.231 1907.646,1550.004 1952.998,1629.992Z" style="fill:rgb(167,137,65);"/>
            </g>
        </g>
        <g transform="matrix(0.205735,0,0,1,4643.82341,23.491953)">
            <rect x="7208" y="193.105" width="63" height="932.336"/>
        </g>
    </g>
</svg>
